<svg xmlns="http://www.w3.org/2000/svg" version="1.1" xmlns:xlink="http://www.w3.org/1999/xlink" width="512" height="512"><svg xmlns="http://www.w3.org/2000/svg" xmlns:xlink="http://www.w3.org/1999/xlink" width="512" zoomAndPan="magnify" viewBox="0 0 384 383.999986" height="512" preserveAspectRatio="xMidYMid meet" version="1.0"><defs><g></g><clipPath id="SvgjsClipPath1027"><path d="M 63 0 L 321 0 C 337.707031 0 353.734375 6.636719 365.546875 18.453125 C 377.363281 30.265625 384 46.292969 384 63 L 384 321 C 384 355.792969 355.792969 384 321 384 L 63 384 C 46.292969 384 30.265625 377.363281 18.453125 365.546875 C 6.636719 353.734375 0 337.707031 0 321 L 0 63 C 0 28.207031 28.207031 0 63 0 Z M 63 0 " clip-rule="nonzero"></path></clipPath><clipPath id="SvgjsClipPath1026"><path d="M 0 0 L 384 0 L 384 384 L 0 384 Z M 0 0 " clip-rule="nonzero"></path></clipPath><clipPath id="SvgjsClipPath1025"><path d="M 63 0 L 321 0 C 337.707031 0 353.734375 6.636719 365.546875 18.453125 C 377.363281 30.265625 384 46.292969 384 63 L 384 321 C 384 355.792969 355.792969 384 321 384 L 63 384 C 46.292969 384 30.265625 377.363281 18.453125 365.546875 C 6.636719 353.734375 0 337.707031 0 321 L 0 63 C 0 28.207031 28.207031 0 63 0 Z M 63 0 " clip-rule="nonzero"></path></clipPath><clipPath id="SvgjsClipPath1024"><rect x="0" width="384" y="0" height="384"></rect></clipPath></defs><g clip-path="url(#ae772345bb)"><g><g clip-path="url(#041ff815be)"><g clip-path="url(#b299c4e896)"><g clip-path="url(#87248b0aa4)"><rect x="-84.48" width="552.96" fill="#231f18" height="552.959979" y="-84.479997" fill-opacity="1"></rect></g></g></g></g></g><g fill="#ffffff" fill-opacity="1"><g transform="translate(38.400004, 267.599979)"><g><path d="M 8.5 64.453125 L 7.90625 53.90625 L 26.078125 49.515625 C 26.078125 48.535156 26.125 46.875 26.21875 44.53125 C 26.320312 42.1875 26.421875 39.007812 26.515625 35 C 26.609375 31 26.753906 26.265625 26.953125 20.796875 C 27.148438 15.328125 27.25 8.984375 27.25 1.765625 L 27.828125 -70.609375 C 27.828125 -76.460938 27.582031 -82.46875 27.09375 -88.625 C 26.613281 -94.78125 26.078125 -99.613281 25.484375 -103.125 L 6.734375 -107.234375 L 6.734375 -116.890625 L 46 -127.734375 L 50.984375 -123.046875 L 49.515625 -106.9375 L 50.390625 -106.9375 C 55.859375 -113.96875 61.863281 -119.289062 68.40625 -122.90625 C 74.945312 -126.519531 82.03125 -128.328125 89.65625 -128.328125 C 100.394531 -128.328125 109.914062 -125.640625 118.21875 -120.265625 C 126.519531 -114.890625 133.0625 -107.515625 137.84375 -98.140625 C 142.625 -88.765625 145.015625 -78.125 145.015625 -66.21875 C 145.015625 -53.125 142.082031 -41.453125 136.21875 -31.203125 C 130.363281 -20.953125 122.40625 -12.847656 112.34375 -6.890625 C 102.289062 -0.929688 90.914062 2.046875 78.21875 2.046875 C 73.53125 2.046875 68.695312 1.601562 63.71875 0.71875 C 58.738281 -0.15625 54.195312 -1.375 50.09375 -2.9375 L 50.09375 19.046875 C 50.09375 26.460938 50.238281 32.757812 50.53125 37.9375 C 50.832031 43.113281 51.078125 46.972656 51.265625 49.515625 L 75.296875 53.328125 L 74.703125 64.453125 Z M 79.109375 -12.3125 C 87.109375 -12.3125 94.035156 -14.210938 99.890625 -18.015625 C 105.753906 -21.828125 110.394531 -27.34375 113.8125 -34.5625 C 117.238281 -41.789062 119.046875 -50.484375 119.234375 -60.640625 C 119.429688 -70.015625 117.867188 -78.316406 114.546875 -85.546875 C 111.234375 -92.773438 106.742188 -98.488281 101.078125 -102.6875 C 95.410156 -106.882812 88.867188 -108.984375 81.453125 -108.984375 C 75.203125 -108.984375 69.488281 -107.566406 64.3125 -104.734375 C 59.132812 -101.898438 54.394531 -97.75 50.09375 -92.28125 L 50.09375 -21.390625 C 53.8125 -18.460938 58.253906 -16.21875 63.421875 -14.65625 C 68.597656 -13.09375 73.828125 -12.3125 79.109375 -12.3125 Z M 79.109375 -12.3125 "></path></g></g><g transform="translate(195.72421, 267.599979)"><g><path d="M 23.140625 -7.90625 C 23.535156 -14.550781 23.734375 -20.410156 23.734375 -25.484375 C 23.734375 -30.566406 23.734375 -35.546875 23.734375 -40.421875 C 23.734375 -45.304688 23.734375 -50.484375 23.734375 -55.953125 L 23.734375 -106.34375 C 23.734375 -113.1875 23.679688 -120.414062 23.578125 -128.03125 C 23.484375 -135.644531 23.382812 -143.015625 23.28125 -150.140625 C 23.1875 -157.273438 23.09375 -163.429688 23 -168.609375 C 22.90625 -173.785156 22.859375 -177.347656 22.859375 -179.296875 L 1.171875 -181.9375 L 0.59375 -191.3125 L 41.890625 -203.328125 L 47.46875 -199.21875 C 47.269531 -191.019531 47.070312 -182.816406 46.875 -174.609375 C 46.675781 -166.410156 46.476562 -156.9375 46.28125 -146.1875 C 46.09375 -135.445312 45.898438 -122.164062 45.703125 -106.34375 L 46.578125 -106.0625 C 51.265625 -112.695312 57.222656 -118.066406 64.453125 -122.171875 C 71.679688 -126.273438 79.59375 -128.328125 88.1875 -128.328125 C 97.945312 -128.328125 106.878906 -125.929688 114.984375 -121.140625 C 123.097656 -116.359375 129.691406 -109.523438 134.765625 -100.640625 C 139.847656 -91.753906 142.390625 -80.960938 142.390625 -68.265625 C 142.390625 -54.398438 139.113281 -42.144531 132.5625 -31.5 C 126.019531 -20.851562 117.28125 -12.550781 106.34375 -6.59375 C 95.40625 -0.632812 83.296875 2.34375 70.015625 2.34375 C 61.617188 2.34375 53.269531 1.367188 44.96875 -0.578125 C 36.664062 -2.535156 29.390625 -4.976562 23.140625 -7.90625 Z M 76.46875 -12.59375 C 87.988281 -12.59375 97.507812 -16.9375 105.03125 -25.625 C 112.550781 -34.320312 116.410156 -46.773438 116.609375 -62.984375 C 116.992188 -78.609375 113.328125 -90.179688 105.609375 -97.703125 C 97.898438 -105.222656 88.578125 -108.984375 77.640625 -108.984375 C 71.773438 -108.984375 66.0625 -107.664062 60.5 -105.03125 C 54.9375 -102.394531 50.101562 -98.34375 46 -92.875 L 46 -21.6875 C 50.101562 -18.945312 54.59375 -16.742188 59.46875 -15.078125 C 64.351562 -13.421875 70.019531 -12.59375 76.46875 -12.59375 Z M 76.46875 -12.59375 "></path></g></g></g><g fill="#ffffff" fill-opacity="1"><g transform="translate(349.825765, 267.599979)"><g></g></g></g></svg><style>@media (prefers-color-scheme: light) { :root { filter: none; } }
@media (prefers-color-scheme: dark) { :root { filter: none; } }
</style></svg>